<svg width="149" height="226" viewBox="0 0 149 226" fill="none" xmlns="http://www.w3.org/2000/svg">
<path d="M80.4179 1.42788C49.2179 -1.77212 30.0846 13.7612 24.4179 21.9279C-9.58208 65.928 3.91785 100.382 2.41788 100.928C-1.58215 102.382 17.9179 174.428 19.9179 184.428C21.9179 194.428 53.9179 226.928 79.4179 224.928C104.918 222.928 122.918 193.428 126.918 189.428C130.918 185.428 144.918 159.428 147.918 95.4277C150.918 31.4277 119.418 5.42788 80.4179 1.42788Z" fill="#FFCC99" stroke="black"/>
<path d="M103.523 98.319C104.202 97.7367 109.464 97.3469 112.011 97.2249C113.536 97.1381 112.618 99.65 112.133 99.7714C111.648 99.8928 107.889 101.349 107.283 100.986C106.676 100.622 101.099 103.049 100.007 102.807C98.9158 102.565 86.1842 107.298 83.8804 108.39C81.5767 109.483 81.6732 107.809 83.2491 105.869C84.825 103.928 86.4725 104.031 90.3528 103.059C91.9286 101.119 102.674 99.0468 103.523 98.319Z" fill="black" stroke="black"/>
<path d="M43.9412 99.7718C43.2263 99.2324 37.9403 99.1656 35.3867 99.1997C33.8571 99.2064 34.9305 101.656 35.423 101.748C35.9155 101.839 39.764 103.062 40.3478 102.662C40.9315 102.262 46.6587 104.342 47.7349 104.034C48.811 103.726 61.8341 107.669 64.2052 108.617C66.5763 109.566 66.3758 107.903 64.6796 106.063C62.9834 104.223 61.3427 104.427 57.4029 103.695C55.7067 101.855 44.8349 100.446 43.9412 99.7718Z" fill="black" stroke="black"/>
</svg>
